<svg width="556" height="576" viewBox="0 0 556 576" fill="none" xmlns="http://www.w3.org/2000/svg">
<path d="M126.228 201.396L105.153 215.205L324.636 549.538L345.711 535.729L126.228 201.396Z" fill="#DCD8C4"/>
<path d="M76.0548 75.5772L124.815 149.853C125.759 151.291 126.093 153.045 125.743 154.729C125.392 156.413 124.387 157.89 122.947 158.833C121.507 159.776 119.751 160.11 118.066 159.76C116.38 159.41 114.903 158.405 113.958 156.967L57.9025 71.5781C50.2938 70.9433 42.646 72.1981 35.6401 75.2309L96.7153 168.265C97.6589 169.704 97.9921 171.458 97.6416 173.141C97.2911 174.825 96.2856 176.301 94.8462 177.244C93.4068 178.187 91.6513 178.521 89.9659 178.171C88.2805 177.821 86.8031 176.817 85.8586 175.379L24.7834 82.3449C19.2077 87.5564 15.0086 94.0644 12.5598 101.29L68.6156 186.678C69.5592 188.117 69.8924 189.87 69.5419 191.554C69.1914 193.238 68.1858 194.714 66.7464 195.657C65.307 196.6 63.5516 196.933 61.8662 196.584C60.1808 196.234 58.7034 195.23 57.7588 193.792L8.99859 119.517C7.74622 140.227 14.5047 164.773 29.3165 187.336C56.8447 229.269 101.749 248.461 129.613 230.203C157.476 211.945 157.748 163.15 130.22 121.217C115.408 98.6545 95.5663 82.6811 76.0548 75.5772Z" fill="#DCD8C4"/>
<path d="M220.72 155.658H195.516V555.486H220.72V155.658Z" fill="#DCD8C4"/>
<path d="M207.736 181.601C241.058 181.601 268.071 140.948 268.071 90.8006C268.071 40.6528 241.058 0 207.736 0C174.414 0 147.401 40.6528 147.401 90.8006C147.401 140.948 174.414 181.601 207.736 181.601Z" fill="#DCD8C4"/>
<path d="M207.736 165.51C235.153 165.51 257.379 132.061 257.379 90.8006C257.379 49.5397 235.153 16.0912 207.736 16.0912C180.319 16.0912 158.093 49.5397 158.093 90.8006C158.093 132.061 180.319 165.51 207.736 165.51Z" fill="#CFCCB8"/>
<path d="M278 576C431.535 576 556 568.865 556 560.064C556 551.263 431.535 544.128 278 544.128C124.465 544.128 0 551.263 0 560.064C0 568.865 124.465 576 278 576Z" fill="#DCD8C4"/>
<path d="M442.408 559.83C338.224 541.068 231.523 541.068 127.339 559.83C125.684 560.129 123.984 560.062 122.358 559.634C120.731 559.205 119.219 558.425 117.928 557.349C116.636 556.272 115.597 554.926 114.883 553.404C114.169 551.883 113.798 550.223 113.797 548.543V405.932H455.951V548.543C455.949 550.223 455.578 551.883 454.864 553.404C454.15 554.926 453.111 556.272 451.82 557.349C450.528 558.425 449.016 559.205 447.39 559.634C445.763 560.062 444.063 560.129 442.408 559.83Z" fill="#95AD79"/>
<path d="M424.637 300.634C416.737 300.627 408.891 301.938 401.423 304.515C390.531 280.912 373.127 260.903 351.252 246.836C329.378 232.769 303.941 225.227 277.927 225.096C251.913 224.964 226.401 232.249 204.385 246.095C182.37 259.94 164.764 279.773 153.634 303.264C142.674 300.192 131.136 299.797 119.991 302.112C108.847 304.426 98.4224 309.383 89.596 316.564C80.7696 323.745 73.7998 332.94 69.2737 343.374C64.7477 353.809 62.798 365.177 63.5887 376.522C64.3795 387.867 67.8877 398.856 73.8178 408.563C79.7478 418.27 87.926 426.411 97.6635 432.3C107.401 438.189 118.413 441.654 129.771 442.403C141.129 443.152 152.501 441.163 162.928 436.603C175.462 455.684 192.58 471.324 212.721 482.093C232.861 492.863 255.381 498.419 278.224 498.255C301.067 498.091 323.505 492.211 343.488 481.153C363.472 470.095 380.363 454.211 392.621 434.952C402.197 439.782 412.743 442.382 423.469 442.558C434.195 442.733 444.821 440.48 454.55 435.966C464.279 431.452 472.859 424.795 479.645 416.495C486.431 408.195 491.247 398.467 493.732 388.041C496.218 377.616 496.307 366.763 493.994 356.298C491.681 345.833 487.025 336.027 480.377 327.617C473.728 319.206 465.259 312.409 455.606 307.736C445.952 303.063 435.365 300.635 424.637 300.634Z" fill="#95AD79"/>
<path d="M141.291 361.676H139.764C139.712 341.359 144.212 321.287 152.936 302.934L154.317 303.588C145.69 321.737 141.239 341.585 141.291 361.676Z" fill="#DCD8C4"/>
<path d="M414.709 361.676H413.181C413.229 342.048 408.981 322.646 400.737 304.83L402.124 304.19C410.461 322.207 414.756 341.827 414.709 361.676Z" fill="#DCD8C4"/>
<path d="M113.981 472.293L113.612 470.812C114.044 470.705 157.453 460.053 221.07 454.768C279.787 449.89 368.232 448.714 456.137 470.812L455.764 472.292C368.075 450.249 279.823 451.42 221.229 456.287C157.726 461.56 114.411 472.187 113.981 472.293Z" fill="#DCD8C4"/>
<path d="M113.981 492.895L113.612 491.414C114.044 491.307 157.453 480.655 221.07 475.37C279.787 470.492 368.232 469.316 456.137 491.414L455.764 492.894C368.075 470.851 279.823 472.023 221.229 476.888C157.726 482.162 114.411 492.788 113.981 492.895Z" fill="#DCD8C4"/>
<path d="M113.981 513.497L113.612 512.015C114.044 511.909 157.453 501.257 221.07 495.972C279.787 491.094 368.232 489.917 456.137 512.016L455.764 513.496C368.075 491.452 279.823 492.625 221.229 497.49C157.726 502.764 114.411 513.39 113.981 513.497Z" fill="#DCD8C4"/>
<path d="M395.056 401.473L376.55 395.187L394.315 304.593L382.102 303.484C370.192 312.613 354.332 316.192 333.987 313.468L366.557 362.647L349.949 374.359L296.971 310.871C294.583 308.009 293.275 304.401 293.275 300.676C293.275 297.222 294.399 293.861 296.478 291.102C298.557 288.342 301.478 286.332 304.8 285.376L361.375 269.095L427.625 276.491C437.642 291.747 438.033 302.357 422.786 305.418L395.056 401.473Z" fill="#2F2E41"/>
<path d="M376.115 436.715C374.202 436.594 372.345 436.024 370.694 435.052C369.042 434.079 367.644 432.731 366.613 431.117C365.581 429.503 364.945 427.669 364.756 425.763C364.567 423.857 364.831 421.934 365.525 420.149L374.725 396.514C379.398 387.67 385.812 388.777 393.385 396.514L397.086 407.361C397.391 408.254 397.512 409.199 397.442 410.14C397.372 411.081 397.112 411.998 396.678 412.836L387.711 430.157C386.624 432.257 384.948 433.995 382.889 435.159C380.83 436.324 378.476 436.865 376.115 436.715Z" fill="#2F2E41"/>
<path d="M352.199 405.765C350.286 405.644 348.428 405.074 346.777 404.101C345.126 403.128 343.728 401.78 342.696 400.166C341.665 398.552 341.029 396.718 340.84 394.812C340.651 392.907 340.914 390.983 341.609 389.199L350.809 365.563C355.482 356.719 361.896 357.826 369.469 365.563L373.17 376.41C373.475 377.303 373.596 378.249 373.526 379.189C373.455 380.13 373.196 381.047 372.762 381.886L363.794 399.206C362.707 401.306 361.032 403.044 358.973 404.209C356.914 405.373 354.56 405.914 352.199 405.765Z" fill="#2F2E41"/>
<path d="M363.966 182.569C375.413 182.569 384.692 173.298 384.692 161.862C384.692 150.426 375.413 141.155 363.966 141.155C352.519 141.155 343.24 150.426 343.24 161.862C343.24 173.298 352.519 182.569 363.966 182.569Z" fill="#CCAB93"/>
<path d="M396.166 191.074L367.667 205.865L361.745 179.241L381.361 167.039L396.166 191.074Z" fill="#CCAB93"/>
<path d="M430.586 280.188C402.149 271.607 376.347 267.161 357.674 273.902C364.11 255.812 352.231 228.188 339.169 199.948C344.805 192.587 353.791 189.736 363.966 188.485C375.099 196.562 382.862 191.378 388.764 178.871C401.635 178.355 414.039 182.909 426.145 190.704C416.682 220.986 418.385 250.805 430.586 280.188Z" fill="#3F3D56"/>
<path d="M357.304 278.339C352.814 280.984 348.669 285.438 344.72 290.912C338.047 286.83 332.173 282.183 327.547 276.656C324.308 272.737 322.1 268.073 321.123 263.086C320.145 258.098 320.429 252.946 321.949 248.097L334.596 207.029C335.647 203.618 337.688 200.596 340.46 198.345L342.13 196.99L358.785 228.421L342.13 259.481C344.242 265.139 350.465 271.673 357.304 278.339Z" fill="#3F3D56"/>
<path d="M363.037 309.651C361.527 310.339 359.877 310.666 358.219 310.607C356.56 310.548 354.939 310.104 353.481 309.31C352.024 308.517 350.772 307.396 349.823 306.035C348.875 304.675 348.256 303.113 348.016 301.472L345.264 282.645L354.887 277.468L367.1 293.441C368.075 294.717 368.75 296.196 369.075 297.768C369.4 299.341 369.366 300.966 368.975 302.523C368.585 304.081 367.848 305.53 366.82 306.764C365.792 307.998 364.499 308.985 363.037 309.651Z" fill="#CCAB93"/>
<path d="M384.877 160.956L381.339 161.061L371.522 147.168C358.944 148.467 348.637 153.927 339.915 162.29L339.03 156.4C338.187 150.783 339.53 145.056 342.784 140.398C346.037 135.74 350.954 132.505 356.522 131.358H356.522C359.447 130.756 362.463 130.748 365.391 131.336C368.319 131.924 371.098 133.095 373.562 134.78C376.026 136.465 378.126 138.629 379.735 141.142C381.344 143.656 382.429 146.467 382.926 149.409L384.877 160.956Z" fill="#2F2E41"/>
<path d="M345.077 290.919C344.389 289.41 344.062 287.763 344.121 286.106C344.18 284.449 344.624 282.828 345.418 281.373C346.212 279.917 347.335 278.666 348.696 277.718C350.058 276.77 351.622 276.152 353.264 275.913L372.109 273.163L377.29 282.777L361.302 294.978C360.025 295.953 358.545 296.627 356.971 296.952C355.397 297.276 353.77 297.242 352.212 296.852C350.653 296.462 349.202 295.726 347.967 294.699C346.732 293.672 345.744 292.38 345.077 290.919Z" fill="#CCAB93"/>
<path d="M434.177 273.793C416.248 275.184 396.672 280.77 376.18 288.693C375.925 282.615 373.719 276.781 369.888 272.053C388.5 267.156 405.389 261.408 415.782 252.456L409.49 205.125L423.184 189.595L425.546 190.826C427.508 191.844 429.233 193.263 430.611 194.991C431.988 196.719 432.987 198.717 433.542 200.855C439.324 223.325 441.892 244.855 440.127 265.115C440.354 267.036 439.877 268.975 438.783 270.571C437.688 272.166 436.052 273.312 434.177 273.793Z" fill="#3F3D56"/>
</svg>
