<svg width="401" height="78" viewBox="0 0 401 78" fill="none" xmlns="http://www.w3.org/2000/svg">
	<path d="M0 38.7829C0 60.2022 17.3637 77.5659 38.7829 77.5659C54.5057 77.5659 68.1983 68.2098 74.2869 54.7615L38.9381 38.7829L74.2869 22.8044C68.1983 9.356 54.5057 0 38.7829 0C17.3637 0 0 17.3637 0 38.7829Z" fill="#95AD79" />
	<path d="M100 38.7788C100 33.0823 98.7718 27.6727 96.5659 22.8002L61.2171 38.7788L96.5659 54.7574C98.7718 49.8849 100 44.4753 100 38.7788Z" fill="#95AD79" />
	<path d="M131.072 20.12C134.699 20.12 137.621 20.696 139.84 21.848C142.059 22.9573 143.168 24.4507 143.168 26.328C143.168 27.2667 142.891 28.0987 142.336 28.824C141.781 29.5067 141.056 29.848 140.16 29.848C139.477 29.848 138.923 29.7627 138.496 29.592C138.069 29.3787 137.643 29.1227 137.216 28.824C136.832 28.4827 136.448 28.2053 136.064 27.992C135.637 27.7787 134.997 27.5867 134.144 27.416C133.333 27.2453 132.672 27.16 132.16 27.16C128.96 27.16 126.443 28.1627 124.608 30.168C122.816 32.1307 121.92 34.712 121.92 37.912C121.92 40.984 122.837 43.544 124.672 45.592C126.507 47.5973 128.853 48.6 131.712 48.6C133.803 48.6 135.36 48.344 136.384 47.832C136.64 47.704 136.981 47.4907 137.408 47.192C137.877 46.8507 138.304 46.5947 138.688 46.424C139.072 46.2533 139.541 46.168 140.096 46.168C141.163 46.168 141.995 46.5093 142.592 47.192C143.232 47.8747 143.552 48.7493 143.552 49.816C143.552 50.84 142.955 51.8 141.76 52.696C140.565 53.592 138.987 54.3173 137.024 54.872C135.061 55.384 132.971 55.64 130.752 55.64C127.467 55.64 124.565 54.872 122.048 53.336C119.573 51.8 117.653 49.688 116.288 47C114.923 44.2693 114.24 41.24 114.24 37.912C114.24 34.456 114.944 31.384 116.352 28.696C117.803 26.008 119.808 23.9173 122.368 22.424C124.928 20.888 127.829 20.12 131.072 20.12ZM181.994 37.912C181.994 41.3253 181.226 44.3973 179.69 47.128C178.154 49.816 176.042 51.9067 173.354 53.4C170.708 54.8933 167.786 55.64 164.586 55.64C161.343 55.64 158.399 54.8933 155.754 53.4C153.108 51.9067 151.018 49.816 149.482 47.128C147.946 44.3973 147.178 41.3253 147.178 37.912C147.178 34.4987 147.946 31.448 149.482 28.76C151.018 26.0293 153.108 23.9173 155.754 22.424C158.399 20.888 161.343 20.12 164.586 20.12C167.786 20.12 170.708 20.888 173.354 22.424C176.042 23.9173 178.154 26.0293 179.69 28.76C181.226 31.448 181.994 34.4987 181.994 37.912ZM174.314 37.912C174.314 35.8213 173.866 33.9653 172.97 32.344C172.116 30.68 170.943 29.4 169.45 28.504C167.999 27.608 166.378 27.16 164.586 27.16C162.794 27.16 161.151 27.608 159.658 28.504C158.207 29.4 157.034 30.68 156.138 32.344C155.284 33.9653 154.858 35.8213 154.858 37.912C154.858 40.0027 155.284 41.8587 156.138 43.48C157.034 45.1013 158.207 46.36 159.658 47.256C161.151 48.152 162.794 48.6 164.586 48.6C166.378 48.6 167.999 48.152 169.45 47.256C170.943 46.36 172.116 45.1013 172.97 43.48C173.866 41.8587 174.314 40.0027 174.314 37.912ZM227.898 20.12C232.122 20.12 235.045 21.4213 236.666 24.024C238.287 26.584 239.098 30.1467 239.098 34.712V51.096C239.098 52.2053 238.735 53.144 238.01 53.912C237.285 54.6373 236.367 55 235.258 55C234.149 55 233.231 54.6373 232.506 53.912C231.781 53.144 231.418 52.2053 231.418 51.096V34.712C231.418 32.3653 230.949 30.5307 230.01 29.208C229.114 27.8427 227.514 27.16 225.21 27.16C222.821 27.16 220.943 27.8853 219.578 29.336C218.255 30.744 217.594 32.536 217.594 34.712V51.096C217.594 52.2053 217.231 53.144 216.506 53.912C215.781 54.6373 214.863 55 213.754 55C212.645 55 211.727 54.6373 211.002 53.912C210.277 53.144 209.914 52.2053 209.914 51.096V34.712C209.914 32.3653 209.445 30.5307 208.506 29.208C207.61 27.8427 206.01 27.16 203.706 27.16C201.317 27.16 199.439 27.8853 198.074 29.336C196.751 30.744 196.09 32.536 196.09 34.712V51.096C196.09 52.2053 195.727 53.144 195.002 53.912C194.277 54.6373 193.359 55 192.25 55C191.141 55 190.223 54.6373 189.498 53.912C188.773 53.144 188.41 52.2053 188.41 51.096V24.664C188.41 23.5547 188.773 22.6373 189.498 21.912C190.223 21.144 191.141 20.76 192.25 20.76C193.359 20.76 194.277 21.144 195.002 21.912C195.727 22.6373 196.09 23.5547 196.09 24.664V25.688C197.242 24.152 198.693 22.8507 200.442 21.784C202.234 20.6747 204.218 20.12 206.394 20.12C211.77 20.12 215.205 22.4667 216.698 27.16C217.679 25.368 219.151 23.7467 221.114 22.296C223.119 20.8453 225.381 20.12 227.898 20.12ZM265.138 20.12C268.082 20.12 270.749 20.888 273.138 22.424C275.527 23.9173 277.405 26.008 278.77 28.696C280.178 31.384 280.882 34.4347 280.882 37.848C280.882 41.2613 280.199 44.3333 278.834 47.064C277.469 49.752 275.591 51.864 273.202 53.4C270.855 54.8933 268.253 55.64 265.394 55.64C263.346 55.64 261.405 55.2347 259.57 54.424C257.778 53.5707 256.285 52.5467 255.09 51.352V63.896C255.09 65.0053 254.727 65.9227 254.002 66.648C253.277 67.416 252.359 67.8 251.25 67.8C250.141 67.8 249.223 67.4373 248.498 66.712C247.773 65.9867 247.41 65.048 247.41 63.896V24.664C247.41 23.5547 247.773 22.6373 248.498 21.912C249.223 21.144 250.141 20.76 251.25 20.76C252.359 20.76 253.277 21.144 254.002 21.912C254.727 22.6373 255.09 23.5547 255.09 24.664V24.92C256.114 23.64 257.543 22.5307 259.378 21.592C261.213 20.6107 263.133 20.12 265.138 20.12ZM264.178 48.6C266.909 48.6 269.149 47.576 270.898 45.528C272.647 43.48 273.522 40.92 273.522 37.848C273.522 34.776 272.647 32.2373 270.898 30.232C269.191 28.184 266.951 27.16 264.178 27.16C261.405 27.16 259.143 28.184 257.394 30.232C255.645 32.2373 254.77 34.776 254.77 37.848C254.77 40.92 255.645 43.48 257.394 45.528C259.143 47.576 261.405 48.6 264.178 48.6ZM295.605 51.096C295.605 52.2053 295.221 53.144 294.453 53.912C293.728 54.6373 292.81 55 291.701 55C290.634 55 289.738 54.6373 289.013 53.912C288.288 53.144 287.925 52.2053 287.925 51.096V11.544C287.925 10.4347 288.288 9.5173 289.013 8.792C289.781 8.024 290.72 7.64 291.829 7.64C292.896 7.64 293.792 8.024 294.517 8.792C295.242 9.5173 295.605 10.4347 295.605 11.544V51.096ZM334.63 37.08C334.587 38.104 334.182 38.936 333.414 39.576C332.646 40.216 331.75 40.536 330.726 40.536H309.606C310.118 43.0533 311.291 45.0373 313.126 46.488C314.961 47.896 317.03 48.6 319.334 48.6C321.083 48.6 322.449 48.4507 323.43 48.152C324.411 47.8107 325.179 47.4693 325.734 47.128C326.331 46.744 326.737 46.488 326.95 46.36C327.718 45.976 328.443 45.784 329.126 45.784C330.022 45.784 330.79 46.104 331.43 46.744C332.07 47.384 332.39 48.1307 332.39 48.984C332.39 50.136 331.793 51.1813 330.598 52.12C329.403 53.1013 327.803 53.9333 325.798 54.616C323.793 55.2987 321.766 55.64 319.718 55.64C316.134 55.64 312.998 54.8933 310.31 53.4C307.665 51.9067 305.617 49.8587 304.166 47.256C302.715 44.6107 301.99 41.6453 301.99 38.36C301.99 34.6907 302.758 31.4693 304.294 28.696C305.83 25.9227 307.857 23.8107 310.374 22.36C312.891 20.8667 315.579 20.12 318.438 20.12C321.254 20.12 323.899 20.888 326.374 22.424C328.891 23.96 330.897 26.0293 332.39 28.632C333.883 31.2347 334.63 34.0507 334.63 37.08ZM318.438 27.16C313.489 27.16 310.566 29.4853 309.67 34.136H326.438V33.688C326.267 31.896 325.393 30.36 323.814 29.08C322.235 27.8 320.443 27.16 318.438 27.16ZM368.997 20.12C370.106 20.12 371.024 20.4827 371.749 21.208C372.474 21.9333 372.837 22.872 372.837 24.024V51.096C372.837 52.2053 372.474 53.144 371.749 53.912C371.024 54.6373 370.106 55 368.997 55C367.888 55 366.97 54.6373 366.245 53.912C365.562 53.1867 365.2 52.2693 365.157 51.16C364.09 52.3973 362.64 53.464 360.805 54.36C359.013 55.2133 357.114 55.64 355.109 55.64C352.165 55.64 349.498 54.8933 347.109 53.4C344.72 51.864 342.821 49.752 341.413 47.064C340.048 44.376 339.365 41.3253 339.365 37.912C339.365 34.4987 340.048 31.448 341.413 28.76C342.778 26.0293 344.634 23.9173 346.981 22.424C349.37 20.888 351.994 20.12 354.853 20.12C356.901 20.12 358.821 20.504 360.613 21.272C362.405 21.9973 363.92 22.936 365.157 24.088V24.024C365.157 22.9147 365.52 21.9973 366.245 21.272C366.97 20.504 367.888 20.12 368.997 20.12ZM356.069 48.6C358.842 48.6 361.104 47.5973 362.853 45.592C364.602 43.544 365.477 40.984 365.477 37.912C365.477 34.84 364.602 32.28 362.853 30.232C361.104 28.184 358.842 27.16 356.069 27.16C353.338 27.16 351.098 28.184 349.349 30.232C347.6 32.28 346.725 34.84 346.725 37.912C346.725 40.984 347.578 43.544 349.285 45.592C351.034 47.5973 353.296 48.6 356.069 48.6ZM397.672 47.768C398.269 47.768 398.803 48.0667 399.272 48.664C399.784 49.2187 400.04 49.9653 400.04 50.904C400.04 52.056 399.4 53.0373 398.12 53.848C396.883 54.616 395.475 55 393.896 55C391.251 55 389.011 54.4453 387.176 53.336C385.384 52.184 384.488 49.7733 384.488 46.104V28.44H381.544C380.52 28.44 379.667 28.0987 378.984 27.416C378.301 26.7333 377.96 25.88 377.96 24.856C377.96 23.8747 378.301 23.064 378.984 22.424C379.667 21.7413 380.52 21.4 381.544 21.4H384.488V17.304C384.488 16.1947 384.851 15.2773 385.576 14.552C386.344 13.784 387.283 13.4 388.392 13.4C389.459 13.4 390.355 13.784 391.08 14.552C391.805 15.2773 392.168 16.1947 392.168 17.304V21.4H396.712C397.736 21.4 398.589 21.7413 399.272 22.424C399.955 23.1067 400.296 23.96 400.296 24.984C400.296 25.9653 399.955 26.7973 399.272 27.48C398.589 28.12 397.736 28.44 396.712 28.44H392.168V45.784C392.168 46.68 392.403 47.3413 392.872 47.768C393.341 48.152 393.981 48.344 394.792 48.344C395.133 48.344 395.603 48.2587 396.2 48.088C396.712 47.8747 397.203 47.768 397.672 47.768Z" fill="#202020" />
</svg>
